<svg version="1.1" id="Layer_1" xmlns="http://www.w3.org/2000/svg" x="0" y="0" viewBox="0 0 48 48" style="enable-background:new 0 0 48 48" xml:space="preserve"><style>.st1{fill:#fff}</style><path d="M45.3 0H2.7C1.2 0 0 1.2 0 2.7v42.6C0 46.8 1.2 48 2.7 48h42.6c1.5 0 2.7-1.2 2.7-2.7V2.7C48 1.2 46.8 0 45.3 0z" style="fill:#1a1a18"/><path id="path8175-4" class="st1" d="M5.6 38.7c0 2 1.2 3.2 3 3.2.9 0 1.6-.3 2-.9v.9h1.6v-9.5h-1.7v4c-.4-.7-1.1-1-2-1-1.7.1-2.9 1.3-2.9 3.3zm4.9 0c0 1.1-.8 1.8-1.7 1.8-.9 0-1.7-.7-1.7-1.8 0-1.2.7-1.9 1.7-1.9 1 .1 1.7.8 1.7 1.9z"/><path id="path8177-2" class="st1" d="M17.4 39.5c-.2.7-.7 1.1-1.4 1.1-.9 0-1.6-.6-1.6-1.5h4.2c.1-.2.1-.5.1-.8 0-1.8-1.2-2.7-2.9-2.7-1.8 0-3.1 1.3-3.1 3.2 0 2 1.4 3.2 3.3 3.2 1.5 0 2.4-.6 2.9-1.9l-1.5-.6zm-3.1-1.6c.2-.7.7-1.1 1.4-1.1.8 0 1.3.4 1.3 1.1v.1h-2.7z"/><path id="path8179-4" class="st1" d="M23.6 39.5c-.2.7-.7 1.1-1.4 1.1-.9 0-1.6-.6-1.6-1.5h4.2c.1-.2.1-.5.1-.8 0-1.8-1.2-2.7-2.9-2.7-1.8 0-3.1 1.3-3.1 3.2 0 2 1.4 3.2 3.3 3.2 1.5 0 2.4-.6 2.9-1.9l-1.5-.6zm-3.1-1.6c.2-.7.7-1.1 1.4-1.1.8 0 1.3.4 1.3 1.1v.1h-2.7z"/><path id="path8181-4" class="st1" d="M30.7 41.9v-1.6h-3.5l3.4-3.4v-1.4h-5.4V37h3.3l-3.4 3.4v1.5h5.6z"/><path id="path8183-9" class="st1" d="M35.6 39.5c-.2.7-.7 1.1-1.4 1.1-.9 0-1.6-.6-1.6-1.5h4.2c.1-.2.1-.5.1-.8 0-1.8-1.2-2.7-2.9-2.7-1.8 0-3.1 1.3-3.1 3.2 0 2 1.4 3.2 3.3 3.2 1.5 0 2.4-.6 2.9-1.9l-1.5-.6zm-3.1-1.6c.2-.7.7-1.1 1.4-1.1.8 0 1.3.4 1.3 1.1v.1h-2.7z"/><path id="rect8185-4" style="fill:#40ab5d" d="M34.4 6.1h7.9v4.6h-7.9z"/><linearGradient id="rect8192-6_1_" gradientUnits="userSpaceOnUse" x1="-525.966" y1="83.411" x2="-525.987" y2="82.048" gradientTransform="matrix(3.4711 0 0 3.4817 1864.054 -273.223)"><stop offset="0" style="stop-color:#358c7b"/><stop offset=".526" style="stop-color:#33a65e"/></linearGradient><path id="rect8192-6" style="fill:url(#rect8192-6_1_)" d="M34.4 12.5h7.9v4.6h-7.9z"/><linearGradient id="rect8199-6_1_" gradientUnits="userSpaceOnUse" x1="-527.15" y1="85.178" x2="-524.803" y2="83.983" gradientTransform="matrix(3.4711 0 0 3.4817 1864.054 -273.223)"><stop offset="0" style="stop-color:#222b90"/><stop offset="1" style="stop-color:#367b99"/></linearGradient><path id="rect8199-6" style="fill:url(#rect8199-6_1_)" d="M34.4 18.9h7.9v4.6h-7.9z"/><linearGradient id="rect8206-4_1_" gradientUnits="userSpaceOnUse" x1="-535.368" y1="86.428" x2="-533.091" y2="86.428" gradientTransform="matrix(3.4711 0 0 3.4817 1864.054 -273.223)"><stop offset="0" style="stop-color:#f90"/><stop offset="1" style="stop-color:#ff8000"/></linearGradient><path id="rect8206-4" style="fill:url(#rect8206-4_1_)" d="M5.7 25.4h7.9V30H5.7z"/><linearGradient id="rect8213-4_1_" gradientUnits="userSpaceOnUse" x1="-532.616" y1="86.428" x2="-530.339" y2="86.428" gradientTransform="matrix(3.4711 0 0 3.4817 1864.054 -273.223)"><stop offset="0" style="stop-color:#ff8000"/><stop offset="1" style="stop-color:#cc1953"/></linearGradient><path id="rect8213-4" style="fill:url(#rect8213-4_1_)" d="M15.3 25.4h7.9V30h-7.9z"/><linearGradient id="rect8220-6_1_" gradientUnits="userSpaceOnUse" x1="-529.864" y1="86.428" x2="-527.587" y2="86.428" gradientTransform="matrix(3.4711 0 0 3.4817 1864.054 -273.223)"><stop offset="0" style="stop-color:#cc1953"/><stop offset="1" style="stop-color:#241284"/></linearGradient><path id="rect8220-6" style="fill:url(#rect8220-6_1_)" d="M24.8 25.4h7.9V30h-7.9z"/><linearGradient id="rect8227-3_1_" gradientUnits="userSpaceOnUse" x1="-527.115" y1="86.428" x2="-524.838" y2="86.428" gradientTransform="matrix(3.4711 0 0 3.4817 1864.054 -273.223)"><stop offset="0" style="stop-color:#222b90"/><stop offset="1" style="stop-color:#3559a6"/></linearGradient><path id="rect8227-3" style="fill:url(#rect8227-3_1_)" d="M34.4 25.4h7.9V30h-7.9z"/><linearGradient id="rect8234-7_1_" gradientUnits="userSpaceOnUse" x1="-529.954" y1="84.94" x2="-527.498" y2="84.222" gradientTransform="matrix(3.4711 0 0 3.4817 1864.054 -273.223)"><stop offset="0" style="stop-color:#cc1953"/><stop offset="1" style="stop-color:#241284"/></linearGradient><path id="rect8234-7" style="fill:url(#rect8234-7_1_)" d="M24.8 18.9h7.9v4.6h-7.9z"/><linearGradient id="rect8241-3_1_" gradientUnits="userSpaceOnUse" x1="-532.7" y1="84.137" x2="-530.261" y2="85.025" gradientTransform="matrix(3.4711 0 0 3.4817 1864.054 -273.223)"><stop offset=".003" style="stop-color:#fc0"/><stop offset="1" style="stop-color:#ce1938"/></linearGradient><path id="rect8241-3" style="fill:url(#rect8241-3_1_)" d="M15.3 18.9h7.9v4.6h-7.9z"/><linearGradient id="rect8248-9_1_" gradientUnits="userSpaceOnUse" x1="-532.427" y1="81.86" x2="-530.534" y2="83.608" gradientTransform="matrix(3.4711 0 0 3.4817 1864.054 -273.223)"><stop offset=".003" style="stop-color:#ffd100"/><stop offset="1" style="stop-color:#fd5a22"/></linearGradient><path id="rect8248-9" style="fill:url(#rect8248-9_1_)" d="M15.3 12.5h7.9v4.6h-7.9z"/><path id="path8250-1" class="st1" d="M40.8 37.7v.2h1.6v-.5c0-1.1-.7-1.9-1.8-1.9-.7 0-1.2.4-1.5 1v-1h-1.7v6.4h1.7v-4.1c0-.7.3-1 .9-1 .5 0 .8.4.8.9z"/></svg>