<svg width="25" height="25" viewBox="0 0 25 25" fill="none" xmlns="http://www.w3.org/2000/svg">
<path fill-rule="evenodd" clip-rule="evenodd" d="M12.5 0C5.45837 0 0 5.15801 0 12.125C0 15.7692 1.4935 18.9182 3.9257 21.0933C4.12988 21.276 4.25312 21.532 4.2615 21.806L4.32958 24.0295C4.35133 24.7388 5.08393 25.2003 5.73293 24.9138L8.214 23.8185C8.42432 23.7258 8.66 23.7085 8.88163 23.7695C10.0218 24.083 11.2352 24.25 12.5 24.25C19.5416 24.25 25 19.092 25 12.125C25 5.15801 19.5416 0 12.5 0Z" fill="url(#paint0_radial_484_31)"/>
<path fill-rule="evenodd" clip-rule="evenodd" d="M5.0952 16.1039L8.71747 10.4015C9.29365 9.49435 10.5275 9.26848 11.392 9.91184L14.273 12.0559C14.5373 12.2526 14.901 12.2516 15.1643 12.0533L19.0551 9.12324C19.5745 8.73219 20.2524 9.34887 19.9048 9.89613L16.2826 15.5985C15.7063 16.5057 14.4725 16.7316 13.608 16.0882L10.7269 13.9441C10.4626 13.7474 10.0989 13.7484 9.83573 13.9467L5.94481 16.8768C5.4255 17.2678 4.74758 16.6511 5.0952 16.1039Z" fill="white"/>
<defs>
<radialGradient id="paint0_radial_484_31" cx="0" cy="0" r="1" gradientUnits="userSpaceOnUse" gradientTransform="translate(4.81186 24.8663) scale(27.2399)">
<stop stop-color="#0099FF"/>
<stop offset="0.609754" stop-color="#A033FF"/>
<stop offset="0.934823" stop-color="#FF5280"/>
<stop offset="1" stop-color="#FF7061"/>
</radialGradient>
</defs>
</svg>