<svg width="40" height="26" viewBox="0 0 40 26" fill="none" xmlns="http://www.w3.org/2000/svg">
<rect width="40" height="26" rx="3" fill="black"/>
<g clip-path="url(#clip0_1850_5084)">
<path d="M37.4597 15.641C36.5453 14.8974 35.0794 15.5466 34.6283 16.0912C34.6283 16.0912 35.1292 14.8288 34.443 14.581C32.852 14.0047 32.0583 17.5474 31.9377 17.8939C31.838 18.1803 31.7095 18.4839 31.5767 18.7909C31.5592 18.8278 30.9044 20.2137 29.2584 20.1442C27.5905 20.0739 28.4271 18.2 28.4271 18.2C28.4271 18.2 30.664 18.5028 31.7244 17.2215C33.1842 15.4566 31.8634 13.9463 30.3126 13.8117C29.1212 13.7079 26.1342 15.0278 26.2435 19.0002C26.2483 19.195 26.2664 19.3892 26.2977 19.5816C26.0975 19.6554 25.851 19.7 25.6727 19.5816C25.323 19.3424 25.5372 18.2867 25.8728 17.1675C26.0678 16.5174 26.337 15.231 26.7383 14.0801C26.963 14.1395 27.1944 14.1709 27.4271 14.1736C28.0766 14.1625 28.4393 13.2937 27.1867 13.0021C27.3298 12.7034 27.5171 12.4271 27.7426 12.1823C27.9131 12.5253 28.3834 13.2714 29.2951 13.4627C29.5465 13.5137 29.8049 13.5221 30.0591 13.4875C31.8293 13.2594 32.5942 10.4542 32.9552 8.47572C30.8703 8.1181 27.8458 7.86167 27.011 9.35819C26.3405 10.5631 27.1631 11.5348 27.5101 11.8692C27.3353 12.0493 26.7304 12.6574 26.5774 12.4696C26.4104 12.2646 26.1403 10.4842 25.7356 9.34532C26.4227 9.08032 27.8851 8.30077 27.7461 6.48265C27.5713 4.11568 23.5878 2.73066 20.7372 2.00513C20.0327 4.716 19.3517 8.70126 21.4602 9.99109C21.7618 10.179 22.0942 10.3145 22.4427 10.3916C23.816 10.6883 24.9183 9.85988 25.2522 9.57087C25.5321 10.5682 25.576 11.6151 25.3807 12.6316C24.5398 12.5021 23.8072 12.497 23.6578 12.8958C23.4016 13.5733 23.7836 13.6136 25.0442 13.7628C24.6866 14.719 24.052 16.3528 23.7513 17.7935C23.4375 16.9025 22.5887 16.255 22.2425 15.8982C21.6901 15.3305 21.8116 14.3031 22.6621 14.3623C23.4488 14.4172 22.892 15.6633 22.892 15.6633C22.892 15.6633 23.9051 15.1487 23.6884 14.1264C23.552 13.4815 23.0336 13.0279 21.9453 13.0973C21.0301 13.1531 20.0773 13.8434 20.0222 14.7851C19.9007 16.7576 22.0327 17.4685 21.8727 18.7515C21.7128 20.0344 20.3535 19.7806 20.2337 19.1563C20.114 18.5319 20.5642 18.1271 21.2722 18.0714C21.2722 18.0714 21.2801 17.2841 20.3753 17.2747C20.0991 17.2909 19.831 17.3724 19.5938 17.5122C20.0064 15.5921 19.2232 13.6299 17.9015 13.4206C16.6567 13.2234 15.8709 14.3331 15.8709 14.3331C15.8709 14.3331 16.0763 13.0467 14.8595 13.0724C14.4128 13.081 14.1689 13.3906 14.0351 13.7174C13.9154 13.9506 13.6234 14.4266 13.1147 14.7053C12.9418 14.4368 12.6998 14.2176 12.4132 14.0699C12.1265 13.9222 11.8053 13.8512 11.4818 13.864C9.10583 13.9249 8.60757 16.4754 8.60757 16.4754C8.60757 16.4754 8.22557 18.164 8.66264 19.3912C8.45459 20.0164 7.65737 20.5473 7.97818 19.2386C8.20546 18.3124 9.18013 15.0707 6.74039 14.7516C5.06378 14.5321 4.67303 15.9668 4.6503 16.056C4.69139 15.8897 5.90908 10.8701 3.30062 10.9233C0.529575 10.979 2.73767 22.5867 4.79716 21.9203C5.85488 21.5773 5.3741 19.6417 4.9921 18.5911C4.4475 17.0894 4.7587 15.9325 5.39595 16.4154C6.03321 16.8982 4.90381 21.5035 7.13113 21.4563C8.26753 21.4323 8.87943 20.6965 9.16265 20.1922C9.4992 20.5078 9.98435 20.6905 10.6784 20.6348C12.1295 20.519 12.8638 19.5816 13.1689 18.6048C13.6776 16.9754 13.3848 15.8193 13.3857 15.8193C13.3865 15.8193 13.5334 15.7422 13.7467 15.6101C13.5124 18.1486 13.1662 24.0823 15.0579 23.9983C17.4627 23.8919 15.682 19.9847 15.682 19.9847C15.682 19.9847 17.2966 21.4521 18.8613 19.1991C18.8823 19.1683 18.9015 19.1365 18.9225 19.1057C19.2835 20.76 22.5476 21.2865 23.5275 19.6202C23.552 19.5782 23.5738 19.5345 23.5948 19.4959C23.6481 20.0542 23.8509 20.471 24.2828 20.6339C25.3632 21.043 26.1263 20.7377 26.5669 20.4118C27.5905 22.2771 30.6894 20.7402 31.0443 20.1425C30.8249 20.8757 30.8301 21.5069 31.4814 21.8165C32.2288 22.1707 33.0461 21.657 33.4045 20.7454C33.7131 19.9684 33.8966 18.9925 34.0592 18.3518C34.4753 16.7087 34.846 16.4068 35.1904 16.7018C35.5348 16.9968 34.943 18.3724 36.2708 18.4505C37.4422 18.5191 37.964 17.7121 37.9903 16.9454C38.0165 16.4437 37.8216 15.936 37.4597 15.641ZM30.824 15.6658C31.456 16.5552 28.7602 17.2095 28.7602 17.2095C29.2724 16.0286 30.1885 14.7765 30.824 15.6667V15.6658ZM12.0762 17.1581C11.9014 18.1529 11.3087 18.8827 10.7571 18.7875C10.2055 18.6923 9.90305 17.8107 10.0796 16.815C10.2562 15.8193 10.8471 15.0895 11.3978 15.1856C11.9486 15.2816 12.2536 16.1641 12.0762 17.1581ZM17.0536 18.4942C15.8542 19.1803 15.7048 17.6958 15.759 16.8073C15.759 16.8073 16.0308 14.3203 17.127 14.4129C18.2232 14.5055 18.2529 17.8064 17.0545 18.4942H17.0536Z" fill="white"/>
</g>
<defs>
<clipPath id="clip0_1850_5084">
<rect width="36" height="22" fill="white" transform="translate(2 2)"/>
</clipPath>
</defs>
</svg>