<svg version="1.1" id="Layer_1" xmlns="http://www.w3.org/2000/svg" x="0" y="0" viewBox="0 0 48 48" style="enable-background:new 0 0 48 48" xml:space="preserve"><style>.st0{fill:#40c351}.st1{fill:#fff}</style><path class="st0" d="M45.3 48H2.7C1.2 48 0 46.8 0 45.3V2.7C0 1.2 1.2 0 2.7 0h42.6C46.8 0 48 1.2 48 2.7v42.6c0 1.5-1.2 2.7-2.7 2.7z"/><path class="st1" d="m4.9 43.3 2.7-9.8C5.9 30.6 5 27.3 5 24 5 13.5 13.5 5 24 5c5.1 0 9.8 2 13.4 5.6C41 14.2 43 18.9 43 24c0 10.5-8.5 19-19 19-3.2 0-6.3-.8-9.1-2.3l-10 2.6z"/><path class="st1" d="M4.9 43.8c-.1 0-.3-.1-.4-.1-.1-.1-.2-.3-.1-.5L7 33.5c-1.6-2.9-2.5-6.2-2.5-9.6C4.5 13.2 13.3 4.5 24 4.5c5.2 0 10.1 2 13.8 5.7 3.7 3.7 5.7 8.6 5.7 13.8 0 10.7-8.7 19.5-19.5 19.5-3.2 0-6.3-.8-9.1-2.3L5 43.8h-.1z"/><path class="st0" d="M35.2 12.8c-3-3-6.9-4.6-11.2-4.6-8.7 0-15.8 7.1-15.8 15.8 0 3 .8 5.9 2.4 8.4l.4.6-1.6 5.8 6-1.6.6.3c2.4 1.4 5.2 2.2 8 2.2 8.7 0 15.8-7.1 15.8-15.8 0-4.1-1.6-8.1-4.6-11.1z"/><path class="st1" d="M19.3 16c-.4-.8-.7-.8-1.1-.8h-.9c-.3 0-.8.1-1.3.6-.4.5-1.7 1.6-1.7 4 0 2.3 1.7 4.6 1.9 4.9.2.3 3.3 5.3 8.1 7.2 4 1.6 4.8 1.3 5.7 1.2.9-.1 2.8-1.1 3.2-2.3.4-1.1.4-2.1.3-2.3s-.4-.3-.9-.6c-.5-.2-2.8-1.4-3.2-1.5-.4-.2-.8-.2-1.1.2s-1.2 1.5-1.5 1.9-.6.4-1 .1c-.5-.2-2-.7-3.8-2.4-1.4-1.3-2.4-2.8-2.6-3.3-.3-.5 0-.7.2-1 .2-.2.5-.6.7-.8.2-.3.3-.5.5-.8.2-.3.1-.6 0-.8S19.7 17 19.3 16z"/></svg>